<?xml version="1.0" standalone="no"?>
<!DOCTYPE svg PUBLIC "-//W3C//DTD SVG 20010904//EN"
 "http://www.w3.org/TR/2001/REC-SVG-20010904/DTD/svg10.dtd">
<svg version="1.0" xmlns="http://www.w3.org/2000/svg"
 width="500.000000pt" height="500.000000pt" viewBox="0 0 500.000000 500.000000"
 preserveAspectRatio="xMidYMid meet">

<g transform="translate(0.000000,500.000000) scale(0.100000,-0.100000)"
fill="#000000" stroke="none">
<path d="M0 2500 l0 -2500 2500 0 2500 0 0 2500 0 2500 -2500 0 -2500 0 0
-2500z m2663 1355 c63 -16 126 -46 252 -119 99 -57 146 -62 170 -16 8 16 20
52 26 80 l11 50 45 0 46 0 -7 -37 c-3 -21 -9 -194 -13 -385 l-6 -348 -42 0
-43 0 -6 58 c-20 166 -90 351 -180 469 -143 189 -443 256 -662 148 -218 -107
-298 -381 -179 -615 53 -105 174 -211 404 -356 l95 -59 -320 -3 -319 -3 -31
37 c-71 83 -135 215 -154 316 -14 71 -13 250 1 318 6 30 29 93 51 138 86 180
272 305 513 342 80 12 276 4 348 -15z m-563 -1356 c0 -40 -4 -59 -12 -59 -10
0 -12 18 -10 65 5 81 22 76 22 -6z m170 6 c0 -45 -4 -65 -12 -65 -10 0 -12 18
-10 65 5 84 22 84 22 0z m175 0 c0 -45 -4 -65 -12 -65 -9 0 -13 20 -13 65 0
45 4 65 13 65 8 0 12 -20 12 -65z m147 -17 c2 -34 -1 -48 -9 -48 -14 0 -19
111 -5 124 8 8 9 -2 14 -76z m260 17 c1 -36 -1 -65 -5 -65 -11 0 -15 16 -20
78 -3 37 -1 52 9 52 8 0 13 -21 16 -65z m188 -6 c0 -40 -4 -59 -12 -59 -10 0
-12 18 -10 65 5 81 22 76 22 -6z m-1116 46 c-4 -10 5 -21 25 -32 31 -18 42
-55 20 -69 -7 -4 -9 0 -5 14 6 17 0 24 -23 37 -22 11 -31 23 -31 40 0 14 4 25
10 25 5 0 7 -7 4 -15z m56 5 c0 -5 -4 -10 -10 -10 -5 0 -10 5 -10 10 0 6 5 10
10 10 6 0 10 -4 10 -10z m174 -6 c7 -18 -10 -54 -25 -54 -6 0 -6 7 1 19 5 11
7 27 4 35 -3 9 -2 16 4 16 5 0 13 -7 16 -16z m940 0 c7 -18 -10 -54 -25 -54
-6 0 -6 7 1 19 5 11 7 27 4 35 -3 9 -2 16 4 16 5 0 13 -7 16 -16z m-1170 -89
c3 -8 1 -15 -4 -15 -6 0 -10 7 -10 15 0 8 2 15 4 15 2 0 6 -7 10 -15z m406 -5
c0 -5 -5 -10 -11 -10 -5 0 -7 5 -4 10 3 6 8 10 11 10 2 0 4 -4 4 -10z m875
-217 c92 -125 128 -243 128 -418 0 -139 -22 -238 -79 -345 -89 -169 -270 -295
-499 -346 -94 -21 -322 -24 -425 -4 -88 16 -206 63 -313 123 -139 77 -173 69
-200 -48 l-13 -60 -44 -3 -43 -3 6 197 c4 108 7 313 7 456 l0 258 43 0 44 0
16 -119 c22 -157 57 -275 116 -396 83 -168 180 -257 338 -312 69 -24 93 -27
203 -27 190 1 296 43 402 159 117 129 141 400 52 576 -35 71 -136 174 -259
266 -55 41 -104 79 -109 84 -6 5 115 9 292 9 l302 0 35 -47z"/>
</g>
</svg>
